<svg version="1.1" id="Layer_1" xmlns="http://www.w3.org/2000/svg" xmlns:xlink="http://www.w3.org/1999/xlink" x="0px" y="0px"
	 width="100%" viewBox="0 0 334 83" enable-background="new 0 0 334 83" xml:space="preserve">
<path fill="#FDFDFD" opacity="1.000000" stroke="none" 
	d="
M227.000000,84.000000 
	C151.333359,84.000000 76.166710,84.000000 1.000050,84.000000 
	C1.000034,56.333363 1.000034,28.666729 1.000017,1.000069 
	C112.333275,1.000046 223.666550,1.000046 334.999878,1.000023 
	C334.999908,28.666595 334.999908,56.333191 334.999939,83.999893 
	C299.166656,84.000000 263.333344,84.000000 227.000000,84.000000 
M250.019196,47.490623 
	C250.023697,47.688076 250.028214,47.885525 249.647659,48.647118 
	C245.467728,51.108963 244.387741,54.929424 245.333832,59.351429 
	C246.201614,63.407440 248.769913,66.656776 252.931519,66.879204 
	C259.561035,67.233536 266.239624,66.669945 271.877045,66.521423 
	C271.877045,58.710743 272.031769,51.959538 271.837738,45.218365 
	C271.596832,36.847527 267.135742,32.020561 259.434601,32.128231 
	C254.058365,32.203396 249.076050,33.924702 245.218552,38.212101 
	C246.868332,41.183575 248.454834,44.041054 250.019196,47.490623 
M28.912344,6.020579 
	C11.796386,10.214739 2.262959,21.822392 4.195288,36.311783 
	C4.755299,36.470516 5.366471,36.735603 6.000046,36.810059 
	C28.745300,39.483086 51.502102,38.992176 74.209183,36.561798 
	C90.507523,34.817360 101.465706,21.844530 100.205406,6.113557 
	C98.793633,6.113557 97.340218,6.022336 95.901390,6.128571 
	C87.460129,6.751826 79.014626,8.038525 70.584984,7.934389 
	C56.984516,7.766374 43.395237,6.692487 28.912344,6.020579 
M53.365337,49.650669 
	C38.708591,49.407074 24.049191,49.260086 9.396809,48.857597 
	C5.309792,48.745338 3.679860,50.009445 3.898917,54.266792 
	C4.222482,60.555229 4.216236,66.875481 4.015183,73.171486 
	C3.847208,78.431694 4.297347,79.069633 9.835631,79.063934 
	C21.829691,79.051582 33.855755,78.526138 45.809898,79.221703 
	C61.257965,80.120552 73.031532,68.528824 75.514153,56.381847 
	C76.527031,51.426098 74.827164,48.991486 69.806419,49.086308 
	C64.644531,49.183796 59.485901,49.453842 53.365337,49.650669 
M176.846008,49.719788 
	C174.078247,42.096985 171.383224,34.446453 168.494843,26.869637 
	C167.711014,24.813519 167.859238,21.606604 163.902069,22.383371 
	C160.740891,23.003889 157.105179,22.395376 156.945969,27.336742 
	C156.895737,28.895472 155.889496,30.430685 155.286469,31.963156 
	C150.870605,43.185261 146.446014,54.403927 141.884186,65.978867 
	C146.058502,65.978867 149.801620,65.978867 153.473099,65.978867 
	C156.779266,56.018269 156.779266,56.018269 167.030090,57.099903 
	C168.512573,60.232319 169.177902,64.536324 171.476715,65.752365 
	C174.269516,67.229713 178.439697,66.103233 182.606445,66.103233 
	C180.555893,60.413174 178.769318,55.455601 176.846008,49.719788 
M142.025681,47.585094 
	C142.307938,44.842690 142.590210,42.100281 142.862305,39.456608 
	C138.502090,39.682701 134.480255,39.891247 130.126892,40.116985 
	C130.493683,36.924442 130.769104,34.527134 131.092590,31.711555 
	C135.887054,32.161449 140.269226,32.572655 144.909744,33.008102 
	C145.289566,29.463133 145.631210,26.274260 145.981659,23.003403 
	C136.699478,23.003403 127.977440,23.003403 119.518341,23.003403 
	C119.518341,37.465046 119.518341,51.633965 119.508240,65.791840 
	C123.405151,65.791840 127.302063,65.791840 131.307953,65.791840 
	C131.001846,60.201004 130.714005,54.943756 130.421661,49.604229 
	C134.517517,49.209282 138.228149,48.851482 142.025681,47.585094 
M278.462341,34.925697 
	C272.880005,35.995903 276.536987,39.707195 276.011993,42.315952 
	C277.903870,42.585247 279.463531,42.807259 280.721680,42.986347 
	C280.721680,50.833248 280.721680,58.244316 280.721680,65.879074 
	C284.290833,65.879074 288.022095,65.879074 291.859497,65.879074 
	C291.859497,57.886860 291.859497,50.146172 291.859497,42.273121 
	C294.296844,41.906059 296.532715,41.569336 298.867737,41.217682 
	C299.123566,38.485348 299.351776,36.048016 299.607330,33.318188 
	C296.885773,33.152660 294.460327,33.005146 291.451111,32.822121 
	C291.950684,30.408730 292.386932,28.301254 292.853455,26.047541 
	C295.958466,27.060591 298.389587,27.853783 301.132690,28.748751 
	C302.174774,25.375328 303.082825,22.435722 303.980042,19.531240 
	C292.727417,14.407548 284.297577,18.626301 281.671112,30.282393 
	C281.319214,31.844065 280.056549,33.200504 278.462341,34.925697 
M212.960266,40.203339 
	C213.537872,38.202473 214.115494,36.201611 214.677002,34.256493 
	C204.321365,28.922997 193.348877,30.878614 187.718781,38.888119 
	C182.745697,45.962921 183.893906,57.991566 189.773148,63.729748 
	C195.130249,68.958313 208.244308,69.779404 215.000443,63.516628 
	C213.795441,60.414528 212.574249,57.270767 211.322617,54.048626 
	C203.011353,59.562538 200.697739,60.082462 197.865189,57.231136 
	C195.226944,54.575405 194.092056,45.882488 196.616287,43.058548 
	C201.969238,37.069977 206.446442,43.513885 211.403610,44.628082 
	C211.881943,43.403488 212.351944,42.200226 212.960266,40.203339 
M329.333374,60.941681 
	C329.559113,59.722294 329.784851,58.502907 330.040405,57.122486 
	C327.202911,57.516590 324.824799,57.846893 322.289459,58.199036 
	C322.289459,52.275272 322.289459,46.725559 322.289459,41.247669 
	C325.023529,40.924690 327.433258,40.640026 329.825226,40.357456 
	C329.825226,37.380989 329.825226,34.949528 329.825226,32.110435 
	C327.194794,32.110435 324.782623,32.110435 322.209900,32.110435 
	C321.973602,29.522501 321.772491,27.319622 321.469910,24.005686 
	C318.526611,25.099306 314.513336,25.659285 314.331879,26.818888 
	C313.541351,31.870651 310.659637,34.158974 306.290527,34.824421 
	C305.391693,39.633041 306.540161,42.462067 311.715637,41.966339 
	C311.715637,44.149071 311.693481,45.962746 311.720093,47.775707 
	C311.783386,52.082176 311.448822,56.448792 312.056732,60.678761 
	C312.763824,65.598648 316.308258,67.466438 322.668945,67.131271 
	C326.143494,66.948174 329.449341,66.529762 329.333374,60.941681 
M237.972122,32.492054 
	C232.023315,32.492054 226.074509,32.492054 220.461761,32.492054 
	C220.461761,44.372608 220.461761,55.046761 220.461761,65.747437 
	C224.082275,65.747437 227.778473,65.747437 230.905899,65.747437 
	C230.905899,59.230778 230.808578,53.089806 230.944397,46.953991 
	C231.019226,43.573952 232.434631,41.556274 236.287994,43.061707 
	C237.322678,43.465942 238.434479,43.672791 239.812469,44.053585 
	C240.899002,40.719830 241.899200,37.651005 243.004471,34.259804 
	C241.446243,33.723549 240.072784,33.250885 237.972122,32.492054 
z"/>
<path fill="#184594" opacity="1.000000" stroke="none" 
	d="
M29.356789,6.010903 
	C43.395237,6.692487 56.984516,7.766374 70.584984,7.934389 
	C79.014626,8.038525 87.460129,6.751826 95.901390,6.128571 
	C97.340218,6.022336 98.793633,6.113557 100.205406,6.113557 
	C101.465706,21.844530 90.507523,34.817360 74.209183,36.561798 
	C51.502102,38.992176 28.745300,39.483086 6.000046,36.810059 
	C5.366471,36.735603 4.755299,36.470516 4.195288,36.311783 
	C2.262959,21.822392 11.796386,10.214739 29.356789,6.010903 
z"/>
<path fill="#212121" opacity="1.000000" stroke="none" 
	d="
M53.845589,49.649525 
	C59.485901,49.453842 64.644531,49.183796 69.806419,49.086308 
	C74.827164,48.991486 76.527031,51.426098 75.514153,56.381847 
	C73.031532,68.528824 61.257965,80.120552 45.809898,79.221703 
	C33.855755,78.526138 21.829691,79.051582 9.835631,79.063934 
	C4.297347,79.069633 3.847208,78.431694 4.015183,73.171486 
	C4.216236,66.875481 4.222482,60.555229 3.898917,54.266792 
	C3.679860,50.009445 5.309792,48.745338 9.396809,48.857597 
	C24.049191,49.260086 38.708591,49.407074 53.845589,49.649525 
z"/>
<path fill="#252525" opacity="1.000000" stroke="none" 
	d="
M176.914368,50.108906 
	C178.769318,55.455601 180.555893,60.413174 182.606445,66.103233 
	C178.439697,66.103233 174.269516,67.229713 171.476715,65.752365 
	C169.177902,64.536324 168.512573,60.232319 167.030090,57.099903 
	C156.779266,56.018269 156.779266,56.018269 153.473099,65.978867 
	C149.801620,65.978867 146.058502,65.978867 141.884186,65.978867 
	C146.446014,54.403927 150.870605,43.185261 155.286469,31.963156 
	C155.889496,30.430685 156.895737,28.895472 156.945969,27.336742 
	C157.105179,22.395376 160.740891,23.003889 163.902069,22.383371 
	C167.859238,21.606604 167.711014,24.813519 168.494843,26.869637 
	C171.383224,34.446453 174.078247,42.096985 176.914368,50.108906 
z"/>
<path fill="#262626" opacity="1.000000" stroke="none" 
	d="
M250.041321,46.898529 
	C248.454834,44.041054 246.868332,41.183575 245.218552,38.212101 
	C249.076050,33.924702 254.058365,32.203396 259.434601,32.128231 
	C267.135742,32.020561 271.596832,36.847527 271.837738,45.218365 
	C272.031769,51.959538 271.877045,58.710743 271.877045,66.521423 
	C266.239624,66.669945 259.561035,67.233536 252.931519,66.879204 
	C248.769913,66.656776 246.201614,63.407440 245.333832,59.351429 
	C244.387741,54.929424 245.467728,51.108963 250.148865,48.349808 
	C251.147736,47.754704 251.645386,47.456913 252.540802,47.156357 
	C254.869080,46.723915 256.853058,46.447323 258.707581,45.799881 
	C259.632568,45.476940 260.681885,44.605042 260.993256,43.736946 
	C261.213318,43.123367 260.450134,41.568634 259.837250,41.382008 
	C258.906189,41.098488 257.499512,41.319618 256.694885,41.890339 
	C254.808685,43.228153 253.159851,44.900627 251.205246,46.581638 
	C250.677475,46.783276 250.359406,46.840904 250.041321,46.898529 
z"/>
<path fill="#232323" opacity="1.000000" stroke="none" 
	d="
M141.982239,48.039391 
	C138.228149,48.851482 134.517517,49.209282 130.421661,49.604229 
	C130.714005,54.943756 131.001846,60.201004 131.307953,65.791840 
	C127.302063,65.791840 123.405151,65.791840 119.513290,65.797363 
	C119.518341,51.633965 119.518341,37.465046 119.518341,23.003403 
	C127.977440,23.003403 136.699478,23.003403 145.981659,23.003403 
	C145.631210,26.274260 145.289566,29.463133 144.909744,33.008102 
	C140.269226,32.572655 135.887054,32.161449 131.092590,31.711555 
	C130.769104,34.527134 130.493683,36.924442 130.126892,40.116985 
	C134.480255,39.891247 138.502090,39.682701 142.862305,39.456608 
	C142.590210,42.100281 142.307938,44.842690 141.982239,48.039391 
z"/>
<path fill="#272727" opacity="1.000000" stroke="none" 
	d="
M278.838989,34.788841 
	C280.056549,33.200504 281.319214,31.844065 281.671112,30.282393 
	C284.297577,18.626301 292.727417,14.407548 303.980042,19.531240 
	C303.082825,22.435722 302.174774,25.375328 301.132690,28.748751 
	C298.389587,27.853783 295.958466,27.060591 292.853455,26.047541 
	C292.386932,28.301254 291.950684,30.408730 291.451111,32.822121 
	C294.460327,33.005146 296.885773,33.152660 299.607330,33.318188 
	C299.351776,36.048016 299.123566,38.485348 298.867737,41.217682 
	C296.532715,41.569336 294.296844,41.906059 291.859497,42.273121 
	C291.859497,50.146172 291.859497,57.886860 291.859497,65.879074 
	C288.022095,65.879074 284.290833,65.879074 280.721680,65.879074 
	C280.721680,58.244316 280.721680,50.833248 280.721680,42.986347 
	C279.463531,42.807259 277.903870,42.585247 276.011993,42.315952 
	C276.536987,39.707195 272.880005,35.995903 278.838989,34.788841 
z"/>
<path fill="#252525" opacity="1.000000" stroke="none" 
	d="
M212.891113,40.600151 
	C212.351944,42.200226 211.881943,43.403488 211.403610,44.628082 
	C206.446442,43.513885 201.969238,37.069977 196.616287,43.058548 
	C194.092056,45.882488 195.226944,54.575405 197.865189,57.231136 
	C200.697739,60.082462 203.011353,59.562538 211.322617,54.048626 
	C212.574249,57.270767 213.795441,60.414528 215.000443,63.516628 
	C208.244308,69.779404 195.130249,68.958313 189.773148,63.729748 
	C183.893906,57.991566 182.745697,45.962921 187.718781,38.888119 
	C193.348877,30.878614 204.321365,28.922997 214.677002,34.256493 
	C214.115494,36.201611 213.537872,38.202473 212.891113,40.600151 
z"/>
<path fill="#242424" opacity="1.000000" stroke="none" 
	d="
M329.229401,61.352448 
	C329.449341,66.529762 326.143494,66.948174 322.668945,67.131271 
	C316.308258,67.466438 312.763824,65.598648 312.056732,60.678761 
	C311.448822,56.448792 311.783386,52.082176 311.720093,47.775707 
	C311.693481,45.962746 311.715637,44.149071 311.715637,41.966339 
	C306.540161,42.462067 305.391693,39.633041 306.290527,34.824421 
	C310.659637,34.158974 313.541351,31.870651 314.331879,26.818888 
	C314.513336,25.659285 318.526611,25.099306 321.469910,24.005686 
	C321.772491,27.319622 321.973602,29.522501 322.209900,32.110435 
	C324.782623,32.110435 327.194794,32.110435 329.825226,32.110435 
	C329.825226,34.949528 329.825226,37.380989 329.825226,40.357456 
	C327.433258,40.640026 325.023529,40.924690 322.289459,41.247669 
	C322.289459,46.725559 322.289459,52.275272 322.289459,58.199036 
	C324.824799,57.846893 327.202911,57.516590 330.040405,57.122486 
	C329.784851,58.502907 329.559113,59.722294 329.229401,61.352448 
z"/>
<path fill="#242424" opacity="1.000000" stroke="none" 
	d="
M238.335724,32.635139 
	C240.072784,33.250885 241.446243,33.723549 243.004471,34.259804 
	C241.899200,37.651005 240.899002,40.719830 239.812469,44.053585 
	C238.434479,43.672791 237.322678,43.465942 236.287994,43.061707 
	C232.434631,41.556274 231.019226,43.573952 230.944397,46.953991 
	C230.808578,53.089806 230.905899,59.230778 230.905899,65.747437 
	C227.778473,65.747437 224.082275,65.747437 220.461761,65.747437 
	C220.461761,55.046761 220.461761,44.372608 220.461761,32.492054 
	C226.074509,32.492054 232.023315,32.492054 238.335724,32.635139 
z"/>
<path fill="#F2F2F2" opacity="1.000000" stroke="none" 
	d="
M250.030258,47.194576 
	C250.359406,46.840904 250.677475,46.783276 251.386047,46.763245 
	C251.898727,46.920261 252.020889,47.039692 252.143051,47.159119 
	C251.645386,47.456913 251.147736,47.754704 250.341400,48.067738 
	C250.028214,47.885525 250.023697,47.688076 250.030258,47.194576 
z"/>
<path fill="#F2F2F2" opacity="1.000000" stroke="none" 
	d="
M251.595734,46.619232 
	C253.159851,44.900627 254.808685,43.228153 256.694885,41.890339 
	C257.499512,41.319618 258.906189,41.098488 259.837250,41.382008 
	C260.450134,41.568634 261.213318,43.123367 260.993256,43.736946 
	C260.681885,44.605042 259.632568,45.476940 258.707581,45.799881 
	C256.853058,46.447323 254.869080,46.723915 252.540802,47.156357 
	C252.020889,47.039692 251.898727,46.920261 251.595734,46.619232 
z"/>
</svg>
